<svg width="17" height="24" viewBox="0 0 17 24" fill="none" xmlns="http://www.w3.org/2000/svg">
<path fill-rule="evenodd" clip-rule="evenodd" d="M8.49981 0.379619C8.84223 0.379619 9.17063 0.515645 9.41275 0.757771C9.65488 0.9999 9.79091 1.32829 9.79091 1.67071L9.79091 19.2124L14.4733 14.53C14.718 14.3019 15.0417 14.1778 15.3762 14.1837C15.7107 14.1896 16.0298 14.3251 16.2664 14.5616C16.5029 14.7982 16.6384 15.1173 16.6443 15.4518C16.6502 15.7863 16.5261 16.11 16.298 16.3547L9.41218 23.2406C9.1701 23.4824 8.84195 23.6182 8.49981 23.6182C8.15767 23.6182 7.82952 23.4824 7.58744 23.2406L0.701608 16.3547C0.473549 16.11 0.349392 15.7863 0.355293 15.4518C0.361195 15.1173 0.496695 14.7982 0.733246 14.5616C0.969796 14.3251 1.28893 14.1896 1.62341 14.1837C1.95789 14.1778 2.2816 14.3019 2.52635 14.53L7.20872 19.2124L7.20872 1.67071C7.20872 1.32829 7.34474 0.9999 7.58687 0.757771C7.829 0.515645 8.15739 0.379619 8.49981 0.379619Z" fill="white"/>
</svg>
