<svg width="51" height="51" viewBox="0 0 51 51" fill="none" xmlns="http://www.w3.org/2000/svg">
<path fill-rule="evenodd" clip-rule="evenodd" d="M14.2485 35.0223C13.9679 34.6907 13.8305 34.2612 13.8666 33.8284C13.9027 33.3955 14.1092 32.9947 14.4408 32.7141L31.4277 18.3399L23.0566 17.6425C22.6352 17.5924 22.2497 17.3806 21.9813 17.0519C21.7129 16.7231 21.5826 16.3031 21.6179 15.8802C21.6531 15.4573 21.8511 15.0645 22.1702 14.7847C22.4892 14.5049 22.9045 14.3599 23.3283 14.3802L35.6389 15.4058C36.0714 15.4421 36.4718 15.6486 36.7522 15.9799C37.0325 16.3113 37.1699 16.7403 37.1341 17.1729L36.1085 29.4834C36.0584 29.9048 35.8466 30.2903 35.5179 30.5587C35.1892 30.827 34.7691 30.9573 34.3462 30.9221C33.9233 30.8868 33.5306 30.6888 33.2508 30.3698C32.971 30.0507 32.8259 29.6355 32.8462 29.2116L33.5436 20.8404L16.5567 35.2146C16.2251 35.4952 15.7956 35.6326 15.3628 35.5965C14.9299 35.5604 14.5291 35.3539 14.2485 35.0223Z" fill="black"/>
</svg>
