<svg xmlns="http://www.w3.org/2000/svg" fill="none" viewBox="14 14 197 197">
<g filter="url(#filter0_d_676_1772)">
<circle cx="112.5" cy="112.5" r="98.5" fill="#20A564"/>
<circle cx="112.5" cy="112.5" r="96.7091" stroke="white" stroke-width="3.58182"/>
</g>
<path d="M151.252 35.1066L152.118 40.517L157.251 38.584L161.992 41.3323L152.334 44.7464L150.306 48.245L146.312 45.9297L148.34 42.4311L146.503 32.3539L151.252 35.1066Z" fill="white"/>
<path d="M173.581 51.1868C176.674 54.3978 178.247 57.9104 175.023 61.0152L174.401 61.6141C171.19 64.7316 167.727 63.0029 164.634 59.8044C161.548 56.5873 159.95 53.0618 163.186 49.9697L163.808 49.3707C167.026 46.2472 170.483 47.982 173.581 51.1868ZM171.408 58.0873L171.618 57.8856C173.026 56.5662 172.167 55.1668 170.878 53.7904C169.545 52.4444 168.179 51.534 166.808 52.8915L166.598 53.0932C165.184 54.4187 166.042 55.8181 167.337 57.2008C168.664 58.5404 170.03 59.4509 171.408 58.0873Z" fill="white"/>
<path d="M183.417 75.5006L188.76 72.6193L190.956 76.6905L185.357 79.7098C181.426 81.8496 178.554 79.2342 176.439 75.3301C174.339 71.4176 173.731 67.5811 177.679 65.4723L183.278 62.453L185.469 66.5165L180.126 69.3977C178.404 70.3064 178.866 71.8689 179.742 73.5487C180.66 75.1956 181.716 76.448 183.417 75.5006Z" fill="white"/>
<path d="M193.925 83.7727L196.517 94.8836C197.097 97.2542 195.569 99.7369 193.176 100.259C192.309 100.461 191.466 100.414 190.654 100.115C189.853 99.8221 189.179 99.3371 188.651 98.6642L186.003 101.933L184.886 97.1452L187.193 94.3179L186.257 90.3025L183.442 90.9592L182.393 86.4633L193.925 83.7727ZM192.881 94.5378L191.602 89.0553L189.637 89.5138L190.916 94.9963C190.98 95.2708 191.129 95.4805 191.362 95.6252C191.605 95.7765 191.859 95.8168 192.125 95.7547C192.674 95.6266 193.009 95.0869 192.881 94.5378Z" fill="white"/>
<path d="M196.792 127.149L187.968 128.808L195.158 134.186L193.982 139.25L183.821 130.658L185.063 125.312L197.968 122.086L196.792 127.149Z" fill="white"/>
<path d="M192.222 143.742L190.142 147.864L179.57 142.529L181.65 138.407L192.222 143.742Z" fill="white"/>
<path d="M183.043 157.481C182.643 157.15 181.674 158.212 180.422 159.589C178.189 162.03 175.056 165.464 172.772 163.567C170.163 161.412 172.014 157.913 174.662 154.706C177.312 151.513 179.893 149.176 183.006 151.176L179.925 154.906C178.882 154.73 177.919 155.522 176.999 156.636C176.084 157.744 175.146 159.254 175.852 159.837C176.253 160.168 177.229 159.112 178.48 157.734C180.713 155.294 183.847 151.86 186.124 153.752C188.732 155.906 186.888 159.411 184.24 162.617C181.577 165.8 179.023 168.159 175.89 166.142L178.97 162.413C180.027 162.6 180.976 161.796 181.897 160.682C182.811 159.574 183.77 158.081 183.043 157.481Z" fill="white"/>
<path d="M175.908 171.428L172.256 174.253L165.011 164.887L168.662 162.062L175.908 171.428Z" fill="white"/>
<path d="M162.892 185.186C158.823 187.006 154.985 187.295 153.157 183.21L152.805 182.422C150.96 178.344 153.761 175.672 157.818 173.847C161.891 172.034 165.749 171.726 167.561 175.818L167.914 176.606C169.762 180.693 166.958 183.357 162.892 185.186ZM157.137 180.802L157.256 181.067C158.02 182.839 159.628 182.506 161.359 181.76C163.077 180.962 164.397 179.985 163.585 178.235L163.466 177.97C162.699 176.19 161.091 176.523 159.351 177.272C157.641 178.067 156.321 179.043 157.137 180.802Z" fill="white"/>
<path d="M138.441 188.649L139.357 194.855L134.781 195.53L133.052 183.816L138.195 183.057L145.544 189.284L144.488 182.129L149.055 181.454L150.784 193.169L144.5 194.096L138.441 188.649Z" fill="white"/>
<path d="M85.7687 193.376C81.5491 191.937 78.5426 189.535 79.9868 185.298L80.2654 184.481C81.693 180.239 85.5632 180.191 89.7773 181.618C93.994 183.065 97.0284 185.468 95.5675 189.698L95.2889 190.515C93.8585 194.766 89.9911 194.806 85.7687 193.376ZM84.5412 186.246L84.4474 186.521C83.7998 188.339 85.2038 189.19 86.9798 189.823C88.7812 190.41 90.4126 190.594 91.0102 188.759L91.104 188.484C91.7545 186.658 90.3505 185.807 88.5662 185.17C86.7731 184.587 85.1417 184.403 84.5412 186.246Z" fill="white"/>
<path d="M65.9056 176.24L62.4675 181.243L58.6555 178.623L62.2583 173.381C64.7787 169.682 68.5278 170.698 72.1923 173.206C75.8468 175.728 78.1388 178.864 75.5894 182.543L71.9866 187.785L68.1819 185.17L71.62 180.167C72.7373 178.573 71.6127 177.394 70.0666 176.299C68.4977 175.253 66.9866 174.621 65.9056 176.24Z" fill="white"/>
<path d="M52.8177 173.721L45.4108 165.043C43.8064 163.204 44.0237 160.296 45.9095 158.733C46.5863 158.155 47.3573 157.81 48.2157 157.703C49.0616 157.595 49.8832 157.716 50.6613 158.071L51.5118 153.951L54.7033 157.691L53.9524 161.262L56.6291 164.398L58.8272 162.522L61.8242 166.034L52.8177 173.721ZM48.7994 163.68L52.4542 167.962L53.9888 166.652L50.334 162.37C50.151 162.155 49.9228 162.037 49.6496 162.016C49.3639 161.993 49.12 162.074 48.9123 162.251C48.4834 162.617 48.4333 163.251 48.7994 163.68Z" fill="white"/>
<path d="M42.6311 131.465L31.0355 133.864L29.8649 128.204L34.7276 122.484L27.993 119.154L26.8241 113.502L38.4198 111.104L39.3548 115.625L33.1688 116.904L40.2917 120.154L40.7592 122.415L35.51 128.224L41.696 126.944L42.6311 131.465Z" fill="white"/>
<path d="M26.4826 105.164L26.8287 100.561L38.6364 101.448L38.2903 106.052L26.4826 105.164Z" fill="white"/>
<path d="M33.2925 90.7631C33.7893 90.9161 34.2795 89.5644 34.9109 87.8138C36.0436 84.7056 37.6294 80.3358 40.4643 81.2183C43.6975 82.2143 43.3225 86.1551 42.0982 90.1292C40.8681 94.0924 39.3741 97.2367 35.7333 96.5761L37.1573 91.9536C38.1885 91.7182 38.7764 90.6178 39.2018 89.237C39.6246 87.8646 39.916 86.1106 39.0403 85.8408C38.5436 85.6878 38.045 87.0369 37.4135 88.7875C36.2809 91.8957 34.6951 96.2655 31.8686 95.3856C28.6354 94.3896 29.002 90.4462 30.2262 86.472C31.4731 82.5141 32.9336 79.3594 36.5996 80.0278L35.1756 84.6503C34.1275 84.8805 33.5565 85.986 33.1311 87.3669C32.7083 88.7393 32.3916 90.4855 33.2925 90.7631Z" fill="white"/>
<path d="M40.4259 72.733C40.8724 72.9991 41.6681 71.8015 42.6953 70.2496C44.5303 67.4971 47.1038 63.6257 49.6499 65.1531C52.5562 66.8849 51.2606 70.6254 49.132 74.1978C47.0003 77.7581 44.8056 80.4603 41.424 78.9582L43.8999 74.803C44.9576 74.8179 45.7888 73.8877 46.5284 72.6464C47.2635 71.4127 47.9611 69.7773 47.174 69.3082C46.7274 69.0422 45.9242 70.2352 44.897 71.7871C43.062 74.5396 40.4885 78.411 37.95 76.8882C35.0437 75.1564 36.3317 71.4113 38.4603 67.839C40.6071 64.2877 42.7716 61.5674 46.1759 63.0831L43.7 67.2382C42.6271 67.2143 41.8111 68.1536 41.0715 69.3948C40.3364 70.6285 39.6161 72.2505 40.4259 72.733Z" fill="white"/>
<path d="M45.3582 57.8599L48.5381 54.513L57.1224 62.6689L53.9426 66.0158L45.3582 57.8599Z" fill="white"/>
<path d="M59.4499 44.5222C63.1919 42.0991 66.9401 41.2255 69.3728 44.9823L69.8421 45.707C72.2895 49.4543 69.9318 52.5239 66.2019 54.9495C62.4551 57.3652 58.6895 58.2606 56.2717 54.4942L55.8024 53.7695C53.3502 50.0148 55.7127 46.9526 59.4499 44.5222ZM65.8089 47.9722L65.6509 47.7282C64.6243 46.0943 63.0869 46.67 61.4899 47.6726C59.9143 48.7243 58.7599 49.8917 59.8308 51.4969L59.9888 51.7409C61.0201 53.3822 62.5576 52.8065 64.162 51.7991C65.7302 50.7522 66.8846 49.5848 65.8089 47.9722Z" fill="white"/>
<path d="M85.2654 39.7208L83.4068 33.7295L87.8245 32.3591L91.3329 43.6684L86.3682 45.2086L78.1496 40.1848L80.2928 47.0933L75.8835 48.4612L72.3751 37.1518L78.4421 35.2697L85.2654 39.7208Z" fill="white"/>
<defs>
<filter id="filter0_d_676_1772" x="0.568182" y="0.568182" width="223.864" height="223.864" filterUnits="userSpaceOnUse" color-interpolation-filters="sRGB">
<feFlood flood-opacity="0" result="BackgroundImageFix"/>
<feColorMatrix in="SourceAlpha" type="matrix" values="0 0 0 0 0 0 0 0 0 0 0 0 0 0 0 0 0 0 127 0" result="hardAlpha"/>
<feOffset/>
<feGaussianBlur stdDeviation="6.71591"/>
<feComposite in2="hardAlpha" operator="out"/>
<feColorMatrix type="matrix" values="0 0 0 0 0 0 0 0 0 0 0 0 0 0 0 0 0 0 0.1 0"/>
<feBlend mode="normal" in2="BackgroundImageFix" result="effect1_dropShadow_676_1772"/>
<feBlend mode="normal" in="SourceGraphic" in2="effect1_dropShadow_676_1772" result="shape"/>
</filter>
</defs>
</svg>