<svg width="62" height="50" viewBox="0 0 62 50" fill="none" xmlns="http://www.w3.org/2000/svg">
<path d="M56.7372 42.8375C62.5825 36.4375 61.994 28.2188 61.9754 28.125V3.125C61.9754 2.2962 61.649 1.50134 61.0681 0.915292C60.4872 0.329241 59.6993 0 58.8777 0H40.2916C36.8748 0 34.0962 2.80312 34.0962 6.25V28.125C34.0962 28.9538 34.4226 29.7487 35.0035 30.3347C35.5844 30.9208 36.3724 31.25 37.1939 31.25H46.7286C46.6631 32.795 46.2056 34.2971 45.3997 35.6125C43.8261 38.1156 40.8616 39.825 36.5837 40.6875L34.0962 41.1875V50H37.1939C45.8148 50 52.3912 47.5906 56.7372 42.8375ZM22.641 42.8375C28.4894 36.4375 27.8978 28.2188 27.8792 28.125V3.125C27.8792 2.2962 27.5528 1.50134 26.9719 0.915292C26.3909 0.329241 25.603 0 24.7815 0H6.19537C2.77862 0 0 2.80312 0 6.25V28.125C0 28.9538 0.326362 29.7487 0.907291 30.3347C1.48822 30.9208 2.27613 31.25 3.09769 31.25H12.6324C12.5669 32.795 12.1093 34.2971 11.3035 35.6125C9.72983 38.1156 6.76535 39.825 2.48744 40.6875L0 41.1875V50H3.09769C11.7185 50 18.2949 47.5906 22.641 42.8375Z" fill="#EBEBEB"/>
</svg>
