<svg width="26" height="25" viewBox="0 0 26 25" fill="none" xmlns="http://www.w3.org/2000/svg">
<path fill-rule="evenodd" clip-rule="evenodd" d="M8.39721 0H17.4661C21.6392 0 25.0234 3.38419 25.0234 7.55737V16.6262C25.0234 20.7994 21.6392 24.1836 17.4661 24.1836H8.39721C4.22403 24.1836 0.839844 20.7994 0.839844 16.6262V7.55737C0.839844 3.38419 4.22403 0 8.39721 0ZM17.4664 21.9167C20.3835 21.9167 22.7566 19.5437 22.7566 16.6266V7.55771C22.7566 4.64056 20.3835 2.26755 17.4664 2.26755H8.39755C5.48041 2.26755 3.10739 4.64056 3.10739 7.55771V16.6266C3.10739 19.5437 5.48041 21.9167 8.39755 21.9167H17.4664Z" fill="white"/>
<path fill-rule="evenodd" clip-rule="evenodd" d="M6.88477 12.0918C6.88477 8.75295 9.59181 6.0459 12.9307 6.0459C16.2695 6.0459 18.9766 8.75295 18.9766 12.0918C18.9766 15.4306 16.2695 18.1377 12.9307 18.1377C9.59181 18.1377 6.88477 15.4306 6.88477 12.0918ZM9.15232 12.0921C9.15232 14.1749 10.8482 15.8708 12.931 15.8708C15.0138 15.8708 16.7097 14.1749 16.7097 12.0921C16.7097 10.0078 15.0138 8.31345 12.931 8.31345C10.8482 8.31345 9.15232 10.0078 9.15232 12.0921Z" fill="white"/>
<circle cx="19.4306" cy="5.59272" r="0.805615" fill="white"/>
</svg>
