<svg width="26" height="26" viewBox="0 0 26 26" fill="none" xmlns="http://www.w3.org/2000/svg">
<path d="M5.87033 8.5498H0.4375V25.8748H5.87033V8.5498Z" fill="white"/>
<path d="M20.5668 8.17444C20.3665 8.1494 20.1537 8.13688 19.9409 8.12437C16.8991 7.99919 15.1841 9.80178 14.5832 10.5779C14.4205 10.7907 14.3454 10.9159 14.3454 10.9159V8.60005H9.15039V25.925H14.3454H14.5832C14.5832 24.16 14.5832 22.4075 14.5832 20.6424C14.5832 19.691 14.5832 18.7397 14.5832 17.7883C14.5832 16.6116 14.4956 15.3598 15.0839 14.2832C15.5847 13.3819 16.486 12.9313 17.4999 12.9313C20.5042 12.9313 20.5668 15.6477 20.5668 15.8981C20.5668 15.9106 20.5668 15.9231 20.5668 15.9231V26.0001H25.9997V14.6963C25.9997 10.8283 24.0343 8.54998 20.5668 8.17444Z" fill="white"/>
<path d="M3.15454 6.30909C4.89675 6.30909 6.3091 4.89675 6.3091 3.15455C6.3091 1.41234 4.89675 0 3.15454 0C1.41233 0 0 1.41234 0 3.15455C0 4.89675 1.41233 6.30909 3.15454 6.30909Z" fill="white"/>
</svg>
