<svg width="1440" height="1027" viewBox="0 0 1440 1027" fill="none" xmlns="http://www.w3.org/2000/svg">
<g clip-path="url(#clip0_3073_1635)">
<rect width="1440" height="1027" fill="white"/>
<circle cx="268" cy="522" r="205.5" fill="#20A564" fill-opacity="0.5" stroke="white"/>
<circle cx="268" cy="522" r="206" fill="#9EFFD0"/>
<g clip-path="url(#clip1_3073_1635)">
<g clip-path="url(#clip2_3073_1635)">
<circle cx="152.645" cy="413.645" r="3.645" fill="white"/>
<circle cx="174.514" cy="413.645" r="3.645" fill="white"/>
<circle cx="196.385" cy="413.645" r="3.645" fill="white"/>
<circle cx="218.254" cy="413.645" r="3.645" fill="#0AD15A"/>
<circle cx="240.125" cy="413.645" r="3.645" fill="#0AD15A"/>
<circle cx="261.995" cy="413.645" r="3.645" fill="#0AD15A"/>
<circle cx="283.866" cy="413.645" r="3.645" fill="white"/>
<circle cx="305.735" cy="413.645" r="3.645" fill="white"/>
<circle cx="327.606" cy="413.645" r="3.645" fill="white"/>
<circle cx="349.475" cy="413.645" r="3.645" fill="white"/>
<circle cx="371.344" cy="413.645" r="3.645" fill="white"/>
</g>
<g clip-path="url(#clip3_3073_1635)">
<circle cx="152.645" cy="435.515" r="3.645" fill="white"/>
<circle cx="174.514" cy="435.515" r="3.645" fill="white"/>
<circle cx="196.385" cy="435.515" r="3.645" fill="white"/>
<circle cx="218.254" cy="435.515" r="3.645" fill="#0AD15A"/>
<circle cx="240.125" cy="435.515" r="3.645" fill="#0AD15A"/>
<circle cx="261.995" cy="435.515" r="3.645" fill="#0AD15A"/>
<circle cx="283.866" cy="435.515" r="3.645" fill="white"/>
<circle cx="305.735" cy="435.515" r="3.645" fill="white"/>
<circle cx="327.606" cy="435.515" r="3.645" fill="white"/>
<circle cx="349.475" cy="435.515" r="3.645" fill="white"/>
<circle cx="371.344" cy="435.515" r="3.645" fill="white"/>
</g>
<g clip-path="url(#clip4_3073_1635)">
<circle cx="152.645" cy="457.385" r="3.645" fill="white"/>
<circle cx="174.514" cy="457.385" r="3.645" fill="white"/>
<circle cx="196.385" cy="457.385" r="3.645" fill="white"/>
<circle cx="218.254" cy="457.385" r="3.645" fill="#0AD15A"/>
<circle cx="240.125" cy="457.385" r="3.645" fill="#0AD15A"/>
<circle cx="261.995" cy="457.385" r="3.645" fill="#0AD15A"/>
<circle cx="283.866" cy="457.385" r="3.645" fill="white"/>
<circle cx="305.735" cy="457.385" r="3.645" fill="white"/>
<circle cx="327.606" cy="457.385" r="3.645" fill="white"/>
<circle cx="349.475" cy="457.385" r="3.645" fill="white"/>
<circle cx="371.344" cy="457.385" r="3.645" fill="white"/>
</g>
<g clip-path="url(#clip5_3073_1635)">
<circle cx="152.645" cy="479.255" r="3.645" fill="white"/>
<circle cx="174.514" cy="479.255" r="3.645" fill="white"/>
<circle cx="196.385" cy="479.255" r="3.645" fill="white"/>
<circle cx="218.254" cy="479.255" r="3.645" fill="#0AD15A"/>
<circle cx="240.125" cy="479.255" r="3.645" fill="#0AD15A"/>
<circle cx="261.995" cy="479.255" r="3.645" fill="#0AD15A"/>
<circle cx="283.866" cy="479.255" r="3.645" fill="white"/>
<circle cx="305.735" cy="479.255" r="3.645" fill="white"/>
<circle cx="327.606" cy="479.255" r="3.645" fill="white"/>
<circle cx="349.475" cy="479.255" r="3.645" fill="white"/>
<circle cx="371.344" cy="479.255" r="3.645" fill="white"/>
</g>
<g clip-path="url(#clip6_3073_1635)">
<circle cx="152.645" cy="501.125" r="3.645" fill="white"/>
<circle cx="174.514" cy="501.125" r="3.645" fill="white"/>
<circle cx="196.385" cy="501.125" r="3.645" fill="white"/>
<circle cx="218.254" cy="501.125" r="3.645" fill="#0AD15A"/>
<circle cx="240.125" cy="501.125" r="3.645" fill="#0AD15A"/>
<circle cx="261.995" cy="501.125" r="3.645" fill="#0AD15A"/>
<circle cx="283.866" cy="501.125" r="3.645" fill="#0AD15A"/>
<circle cx="305.735" cy="501.125" r="3.645" fill="#0AD15A"/>
<circle cx="327.606" cy="501.125" r="3.645" fill="white"/>
<circle cx="349.475" cy="501.125" r="3.645" fill="white"/>
<circle cx="371.344" cy="501.125" r="3.645" fill="white"/>
</g>
<g clip-path="url(#clip7_3073_1635)">
<circle cx="152.645" cy="522.995" r="3.645" fill="white"/>
<circle cx="174.514" cy="522.995" r="3.645" fill="white"/>
<circle cx="196.385" cy="522.995" r="3.645" fill="white"/>
<circle cx="218.254" cy="522.995" r="3.645" fill="#0AD15A"/>
<circle cx="240.125" cy="522.995" r="3.645" fill="#0AD15A"/>
<circle cx="261.995" cy="522.995" r="3.645" fill="#0AD15A"/>
<circle cx="283.866" cy="522.995" r="3.645" fill="#0AD15A"/>
<circle cx="305.735" cy="522.995" r="3.645" fill="#0AD15A"/>
<circle cx="327.606" cy="522.995" r="3.645" fill="#0AD15A"/>
<circle cx="349.475" cy="522.995" r="3.645" fill="white"/>
<circle cx="371.344" cy="522.995" r="3.645" fill="white"/>
</g>
<g clip-path="url(#clip8_3073_1635)">
<circle cx="152.645" cy="544.865" r="3.645" fill="white"/>
<circle cx="174.514" cy="544.865" r="3.645" fill="white"/>
<circle cx="196.385" cy="544.865" r="3.645" fill="white"/>
<circle cx="218.254" cy="544.865" r="3.645" fill="#0AD15A"/>
<circle cx="240.125" cy="544.865" r="3.645" fill="#0AD15A"/>
<circle cx="261.995" cy="544.865" r="3.645" fill="#0AD15A"/>
<circle cx="283.866" cy="544.865" r="3.645" fill="#0AD15A"/>
<circle cx="305.735" cy="544.865" r="3.645" fill="#0AD15A"/>
<circle cx="327.606" cy="544.865" r="3.645" fill="#0AD15A"/>
<circle cx="349.475" cy="544.865" r="3.645" fill="white"/>
<circle cx="371.344" cy="544.865" r="3.645" fill="white"/>
</g>
<g clip-path="url(#clip9_3073_1635)">
<circle cx="152.645" cy="566.735" r="3.645" fill="white"/>
<circle cx="174.514" cy="566.735" r="3.645" fill="white"/>
<circle cx="196.385" cy="566.735" r="3.645" fill="white"/>
<circle cx="218.254" cy="566.735" r="3.645" fill="#0AD15A"/>
<circle cx="240.125" cy="566.735" r="3.645" fill="#0AD15A"/>
<circle cx="261.995" cy="566.735" r="3.645" fill="#0AD15A"/>
<circle cx="283.866" cy="566.735" r="3.645" fill="#0AD15A"/>
<circle cx="305.735" cy="566.735" r="3.645" fill="#0AD15A"/>
<circle cx="327.606" cy="566.735" r="3.645" fill="#0AD15A"/>
<circle cx="349.475" cy="566.735" r="3.645" fill="white"/>
<circle cx="371.344" cy="566.735" r="3.645" fill="white"/>
</g>
<g clip-path="url(#clip10_3073_1635)">
<circle cx="152.645" cy="588.605" r="3.645" fill="white"/>
<circle cx="174.514" cy="588.605" r="3.645" fill="white"/>
<circle cx="196.385" cy="588.605" r="3.645" fill="white"/>
<circle cx="218.254" cy="588.605" r="3.645" fill="#0AD15A"/>
<circle cx="240.125" cy="588.605" r="3.645" fill="#0AD15A"/>
<circle cx="261.995" cy="588.605" r="3.645" fill="#0AD15A"/>
<circle cx="283.866" cy="588.605" r="3.645" fill="#0AD15A"/>
<circle cx="305.735" cy="588.605" r="3.645" fill="#0AD15A"/>
<circle cx="327.606" cy="588.605" r="3.645" fill="#0AD15A"/>
<circle cx="349.475" cy="588.605" r="3.645" fill="white"/>
<circle cx="371.344" cy="588.605" r="3.645" fill="white"/>
</g>
<g clip-path="url(#clip11_3073_1635)">
<circle cx="152.645" cy="610.475" r="3.645" fill="white"/>
<circle cx="174.514" cy="610.475" r="3.645" fill="white"/>
<circle cx="196.385" cy="610.475" r="3.645" fill="white"/>
<circle cx="218.254" cy="610.475" r="3.645" fill="white"/>
<circle cx="240.125" cy="610.475" r="3.645" fill="#0AD15A"/>
<circle cx="261.995" cy="610.475" r="3.645" fill="#0AD15A"/>
<circle cx="283.866" cy="610.475" r="3.645" fill="#0AD15A"/>
<circle cx="305.735" cy="610.475" r="3.645" fill="#0AD15A"/>
<circle cx="327.606" cy="610.475" r="3.645" fill="white"/>
<circle cx="349.475" cy="610.475" r="3.645" fill="white"/>
<circle cx="371.344" cy="610.475" r="3.645" fill="white"/>
</g>
<g clip-path="url(#clip12_3073_1635)">
<circle cx="152.645" cy="632.345" r="3.645" fill="white"/>
<circle cx="174.514" cy="632.345" r="3.645" fill="white"/>
<circle cx="196.385" cy="632.345" r="3.645" fill="white"/>
<circle cx="218.254" cy="632.345" r="3.645" fill="white"/>
<circle cx="240.125" cy="632.345" r="3.645" fill="white"/>
<circle cx="261.995" cy="632.345" r="3.645" fill="white"/>
<circle cx="283.866" cy="632.345" r="3.645" fill="white"/>
<circle cx="305.735" cy="632.345" r="3.645" fill="white"/>
<circle cx="327.606" cy="632.345" r="3.645" fill="white"/>
<circle cx="349.475" cy="632.345" r="3.645" fill="white"/>
<circle cx="371.344" cy="632.345" r="3.645" fill="white"/>
</g>
</g>
<path d="M-45.4259 1047.07C101.517 973.242 433.444 833.86 717.004 833.849C1019.91 833.837 1157.48 893.005 1486.14 1038.54" stroke="#20A564" stroke-width="25"/>
<path d="M0 1020.36C595.046 775.028 908.783 779.407 1440 1020.36V1240H0V1020.36Z" fill="black"/>
<path d="M0 89.2096C595.046 230.185 908.783 227.669 1440 89.2096V-37H0V89.2096Z" fill="black"/>
<path d="M-265.673 -65.4999C-247.173 77.9997 402.737 212.591 775.827 202.499C1311.83 188 1689.7 12.6504 1970.83 -120" stroke="#1D9A5D" stroke-width="21"/>
</g>
<defs>
<clipPath id="clip0_3073_1635">
<rect width="1440" height="1027" fill="white"/>
</clipPath>
<clipPath id="clip1_3073_1635">
<rect width="243" height="243" fill="white" transform="translate(149 410)"/>
</clipPath>
<clipPath id="clip2_3073_1635">
<rect width="243" height="21.87" fill="white" transform="translate(149 410)"/>
</clipPath>
<clipPath id="clip3_3073_1635">
<rect width="243" height="21.87" fill="white" transform="translate(149 431.87)"/>
</clipPath>
<clipPath id="clip4_3073_1635">
<rect width="243" height="21.87" fill="white" transform="translate(149 453.74)"/>
</clipPath>
<clipPath id="clip5_3073_1635">
<rect width="243" height="21.87" fill="white" transform="translate(149 475.61)"/>
</clipPath>
<clipPath id="clip6_3073_1635">
<rect width="243" height="21.87" fill="white" transform="translate(149 497.48)"/>
</clipPath>
<clipPath id="clip7_3073_1635">
<rect width="243" height="21.87" fill="white" transform="translate(149 519.35)"/>
</clipPath>
<clipPath id="clip8_3073_1635">
<rect width="243" height="21.87" fill="white" transform="translate(149 541.22)"/>
</clipPath>
<clipPath id="clip9_3073_1635">
<rect width="243" height="21.87" fill="white" transform="translate(149 563.09)"/>
</clipPath>
<clipPath id="clip10_3073_1635">
<rect width="243" height="21.87" fill="white" transform="translate(149 584.96)"/>
</clipPath>
<clipPath id="clip11_3073_1635">
<rect width="243" height="21.87" fill="white" transform="translate(149 606.83)"/>
</clipPath>
<clipPath id="clip12_3073_1635">
<rect width="243" height="21.87" fill="white" transform="translate(149 628.7)"/>
</clipPath>
</defs>
</svg>
