<svg width="23" height="23" viewBox="0 0 23 23" fill="none" xmlns="http://www.w3.org/2000/svg">
<path d="M10.7335 0.535371C10.9947 -0.178457 12.0045 -0.178457 12.2657 0.535371L13.0459 2.66597C13.6577 4.3374 14.6267 5.8553 15.8853 7.11388C17.1439 8.37246 18.6618 9.34146 20.3332 9.95333L22.4638 10.7335C23.1787 10.9947 23.1787 12.0045 22.4638 12.2657L20.3332 13.0459C18.6618 13.6577 17.1439 14.6267 15.8853 15.8853C14.6267 17.1439 13.6577 18.6618 13.0459 20.3332L12.2657 22.4638C12.0045 23.1787 10.9947 23.1787 10.7335 22.4638L9.95333 20.3332C9.34146 18.6618 8.37246 17.1439 7.11388 15.8853C5.8553 14.6267 4.3374 13.6577 2.66597 13.0459L0.535371 12.2657C-0.178457 12.0045 -0.178457 10.9947 0.535371 10.7335L2.66597 9.95333C4.3374 9.34146 5.8553 8.37246 7.11388 7.11388C8.37246 5.8553 9.34146 4.3374 9.95333 2.66597L10.7335 0.535371Z" fill="white"/>
</svg>
