<svg width="26" height="21" viewBox="0 0 26 21" fill="none" xmlns="http://www.w3.org/2000/svg">
<path d="M25.8405 2.48628C24.8793 2.90793 23.855 3.18742 22.7872 3.32312C23.8857 2.66722 24.7242 1.63652 25.1184 0.394187C24.0941 1.00485 22.9633 1.4362 21.7581 1.67691C20.7855 0.641361 19.3994 0 17.8873 0C14.9535 0 12.5916 2.38128 12.5916 5.30052C12.5916 5.72055 12.6272 6.12443 12.7144 6.50893C8.30888 6.29406 4.41063 4.18258 1.79188 0.96608C1.33468 1.7593 1.06651 2.66722 1.06651 3.64461C1.06651 5.47984 2.01159 7.10667 3.42032 8.04852C2.56894 8.03236 1.73372 7.78519 1.02612 7.39585C1.02612 7.412 1.02612 7.433 1.02612 7.454C1.02612 10.0291 2.86296 12.1681 5.2717 12.6608C4.84036 12.7788 4.37024 12.8353 3.88236 12.8353C3.5431 12.8353 3.20061 12.8159 2.87912 12.7448C3.56572 14.8434 5.51403 16.3862 7.83069 16.4363C6.02777 17.8466 3.73858 18.6964 1.26037 18.6964C0.825795 18.6964 0.408991 18.677 -0.0078125 18.6237C2.33954 20.1374 5.12146 21.0017 8.12148 21.0017C17.8728 21.0017 23.204 12.9242 23.204 5.92249C23.204 5.68824 23.1959 5.46207 23.1846 5.23751C24.2363 4.49114 25.12 3.55899 25.8405 2.48628Z" fill="white"/>
</svg>
