<svg width="26" height="26" viewBox="0 0 26 26" fill="none" xmlns="http://www.w3.org/2000/svg">
<path d="M24.9822 7.44061C24.3251 5.98852 23.3818 4.68483 22.1841 3.56132C20.9864 2.44841 19.5979 1.56868 18.0504 0.953924C16.4499 0.317975 14.754 0 13.0052 0C11.2563 0 9.56045 0.317975 7.95998 0.953924C6.4125 1.56868 5.02401 2.43781 3.82631 3.56132C2.6286 4.68483 1.68529 5.98852 1.02814 7.44061C0.349793 8.94569 0 10.5568 0 12.2102C0 15.1038 1.0811 17.8808 3.06315 20.0854L2.00323 25.8619L7.642 23.3499C9.32727 24.0707 11.1185 24.4311 12.9946 24.4311C14.7434 24.4311 16.4393 24.1131 18.0398 23.4771C19.5873 22.8624 20.9758 21.9933 22.1735 20.8697C23.3712 19.7462 24.3145 18.4425 24.9716 16.9904C25.65 15.4854 25.9998 13.8743 25.9998 12.2208C26.0104 10.5568 25.6606 8.95629 24.9822 7.44061Z" fill="white"/>
<path d="M18.2844 14.6482C17.7332 14.3726 17.3305 14.2031 17.0443 14.0971C16.8641 14.0335 16.4402 13.8427 16.2918 13.9593C15.8254 14.3408 15.3272 15.422 14.7973 15.6233C13.483 15.369 12.2641 14.468 11.3102 13.5459C10.8862 13.1431 10.1019 11.9984 9.93228 11.6911C9.90048 11.3731 10.4728 10.9491 10.6 10.7053C11.2572 9.96339 10.759 9.49703 10.6742 9.18965C10.5258 8.87168 10.2715 8.29932 10.0489 7.83296C9.85809 7.52558 9.81566 7.06982 9.47648 6.90023C8.035 6.15829 7.2083 7.64217 6.86913 8.41591C4.82349 13.3445 17.1185 22.7248 19.6199 16.2593C19.7471 15.6975 19.6941 15.4856 19.5033 15.2312C19.1217 14.9662 18.6766 14.8496 18.2844 14.6482Z" fill="black"/>
</svg>
